# xmcd
#
# Track frame offsets:
#	150
#	15688
#	31958
#	49913
#	69280
#	84370
#	104665
#	125593
#	141298
#	155105
#	169900
#	185203
#	201285
#	219040
#	235310
#	251705
#	268673
#	284358
#
# Disc length: 3994 seconds
#
# Revision: 1
# Processed by: cddbd v1.5PL3 Copyright (c) Steve Scherf et al.
# Submitted via: CDex 1.50Beta5
#
DISCID=120f9812
DTITLE=Mis-Teeq - Lickin' On Goth Sides -Special Edition-
DYEAR=2002
DGENRE=Pop -> General Pop
TTITLE0=One Night Stand (Strange Radio Edit)
TTITLE1=That Type Of Girl
TTITLE2=Roll On (Blacksmith Rub)
TTITLE3=B With Me
TTITLE4=Why? (Matt 'jam' Lamont And DJ Face UK Garage MC Edit)
TTITLE5=They'll Never Know Featring Asher D And Harvey (Courtesy Of So Solid Crew)
TTITLE6=Stamp Reject
TTITLE7=All I Want (Sunship Radio Edit)
TTITLE8=Nasty
TTITLE9=These Days
TTITLE10=Better Better
TTITLE11=Secrets Of The Night
TTITLE12=You're Gonna Stay
TTITLE13=One Night Stand (Sunship Radio Edit)
TTITLE14=B With Me (Bump and Flex Radio Edit)
TTITLE15=Roll On (Rishi Rich Bhangrahop Edit)
TTITLE16=This Is How We Do It (Rishi Rich Mayfair Edit)
TTITLE17=Roll On (Rishi Rich Radio Mix)
EXTD=
EXTT0=
EXTT1=
EXTT2=
EXTT3=
EXTT4=
EXTT5=
EXTT6=
EXTT7=
EXTT8=
EXTT9=
EXTT10=
EXTT11=
EXTT12=
EXTT13=
EXTT14=
EXTT15=
EXTT16=
EXTT17=
PLAYORDER=
